<svg width="454" height="454" viewBox="0 0 454 454" fill="none" xmlns="http://www.w3.org/2000/svg">
<rect width="454" height="454" fill="white"/>
<path d="M114.428 137.934C114.725 134.022 117.985 131 121.907 131H330.188C334.091 131 337.341 133.993 337.663 137.882L359.184 398.382C359.545 402.753 356.095 406.5 351.71 406.5H102.179C97.8136 406.5 94.3707 402.786 94.7003 398.434L114.428 137.934Z" stroke="black" stroke-width="15"/>
<mask id="path-2-inside-1_14_141" fill="white">
<path d="M288 137.5C288 115.354 282.1 94.1159 271.598 78.4566C261.096 62.7973 246.852 54 232 54C217.148 54 202.904 62.7973 192.402 78.4566C181.9 94.1159 176 115.354 176 137.5L232 137.5H288Z"/>
</mask>
<path d="M288 137.5C288 115.354 282.1 94.1159 271.598 78.4566C261.096 62.7973 246.852 54 232 54C217.148 54 202.904 62.7973 192.402 78.4566C181.9 94.1159 176 115.354 176 137.5L232 137.5H288Z" stroke="black" stroke-width="30" mask="url(#path-2-inside-1_14_141)"/>
</svg>
