<svg width="454" height="454" viewBox="0 0 454 454" fill="none" xmlns="http://www.w3.org/2000/svg">
<rect width="454" height="454" fill="white"/>
<path fill-rule="evenodd" clip-rule="evenodd" d="M87.0603 242.231C84.1132 242.231 81.7986 244.769 82.1765 247.692C85.3191 271.999 94.0332 295.352 107.752 315.884C125.286 342.125 150.207 362.578 179.365 374.655C208.522 386.733 240.607 389.893 271.56 383.736C302.514 377.579 330.947 362.381 353.263 340.065C375.579 317.748 390.777 289.316 396.934 258.362C403.091 227.408 399.931 195.324 387.853 166.167C375.776 137.009 355.323 112.087 329.082 94.5536C308.551 80.835 285.197 72.1208 260.89 68.9782C257.967 68.6004 255.43 70.9149 255.43 73.862L255.43 212.231C255.43 228.8 241.998 242.231 225.43 242.231L87.0603 242.231ZM66.5034 242.214C65.7925 233.96 72.5752 227.231 80.8595 227.231L225.43 227.231C233.714 227.231 240.43 220.516 240.43 212.231L240.43 67.6612C240.43 59.3769 247.158 52.5942 255.412 53.3052C284.654 55.8239 312.877 65.6856 337.416 82.0816C366.124 101.264 388.499 128.528 401.712 160.426C414.924 192.325 418.381 227.425 411.646 261.288C404.91 295.152 388.284 326.257 363.869 350.671C339.455 375.085 308.35 391.712 274.487 398.447C240.623 405.183 205.523 401.726 173.625 388.513C141.726 375.3 114.462 352.925 95.2798 324.217C78.8839 299.679 69.0222 271.456 66.5034 242.214Z" fill="black"/>
<path fill-rule="evenodd" clip-rule="evenodd" d="M72.3965 198.388C72.0187 201.31 74.3332 203.848 77.2803 203.848L210.65 203.848C213.411 203.848 215.65 201.609 215.65 198.848L215.65 65.4783C215.65 62.5312 213.112 60.2166 210.19 60.5945C196.266 62.3947 182.611 66.0285 169.585 71.424C150.225 79.4431 132.634 91.197 117.816 106.014C102.999 120.832 91.2451 138.423 83.226 157.783C77.8305 170.809 74.1967 184.464 72.3965 198.388ZM56.7235 203.866C56.0125 212.12 62.7952 218.848 71.0794 218.848L215.65 218.848C223.934 218.848 230.65 212.132 230.65 203.848L230.65 59.2774C230.65 50.9931 223.922 44.2105 215.668 44.9215C197.877 46.4539 180.397 50.7097 163.845 57.5658C142.665 66.3388 123.42 79.1975 107.21 95.4078C90.9995 111.618 78.1408 130.863 69.3678 152.042C62.5117 168.595 58.2559 186.075 56.7235 203.866Z" fill="black"/>
</svg>
