<svg width="454" height="454" viewBox="0 0 454 454" fill="none" xmlns="http://www.w3.org/2000/svg">
<rect width="454" height="454" fill="white"/>
<path fill-rule="evenodd" clip-rule="evenodd" d="M65 83H388C390.761 83 393 85.2386 393 88V288C393 290.761 390.761 293 388 293H223.5C219.358 293 216 296.358 216 300.5C216 304.642 219.358 308 223.5 308H388C399.046 308 408 299.046 408 288V88C408 76.9543 399.046 68 388 68H65C53.9543 68 45 76.9543 45 88V288C45 299.046 53.9543 308 65 308H122.5C126.642 308 130 304.642 130 300.5C130 296.358 126.642 293 122.5 293H65C62.2386 293 60 290.761 60 288V88C60 85.2386 62.2386 83 65 83Z" fill="black"/>
<path d="M223 301L139.432 371.197C132.926 376.662 123 372.037 123 363.54L123 301" stroke="black" stroke-width="15" stroke-linecap="round"/>
</svg>
