<svg width="454" height="454" viewBox="0 0 454 454" fill="none" xmlns="http://www.w3.org/2000/svg">
<rect width="454" height="454" fill="white"/>
<path d="M288.158 118.343C288.324 125.041 293.742 130.417 300.441 130.532L353.557 131.437C364.821 131.629 370.571 117.995 362.572 110.063L308.14 56.0899C300.144 48.1613 286.564 54.0186 286.843 65.2758L288.158 118.343Z" stroke="black" stroke-width="15"/>
<path fill-rule="evenodd" clip-rule="evenodd" d="M301.786 45.001L105 45.001C93.9543 45.001 85 53.9553 85 65.001L85 388.001C85 399.047 93.9543 408.001 105 408.001H354C365.046 408.001 374 399.047 374 388.001V118.602C368.822 119.018 363.412 117.434 359 113.345V388.001C359 390.762 356.761 393.001 354 393.001H105C102.239 393.001 100 390.762 100 388.001L100 65.001C100 62.2396 102.239 60.001 105 60.001L306.004 60.001C302.345 55.4821 301.104 50.0852 301.786 45.001Z" fill="black"/>
</svg>
