<svg width="454" height="454" viewBox="0 0 454 454" fill="none" xmlns="http://www.w3.org/2000/svg">
<rect width="454" height="454" fill="white"/>
<path d="M399.5 227.5C399.5 237.324 394.81 247.339 385.453 257.165C376.09 266.997 362.477 276.158 345.893 284.007C312.728 299.702 269.062 309.5 227.923 309.5C186.78 309.5 142.638 299.701 108.995 283.99C92.1713 276.134 78.3252 266.963 68.792 257.12C59.2591 247.276 54.5 237.275 54.5 227.5C54.5 217.725 59.2591 207.724 68.792 197.88C78.3252 188.037 92.1713 178.866 108.995 171.01C142.638 155.299 186.78 145.5 227.923 145.5C269.062 145.5 312.728 155.298 345.893 170.993C362.477 178.842 376.09 188.003 385.453 197.835C394.81 207.661 399.5 217.676 399.5 227.5Z" stroke="black" stroke-width="15"/>
<circle cx="227" cy="228" r="62.5" stroke="black" stroke-width="15"/>
<path d="M360 363L93 95" stroke="black" stroke-width="15" stroke-linecap="round"/>
</svg>
