<svg width="454" height="454" viewBox="0 0 454 454" fill="none" xmlns="http://www.w3.org/2000/svg">
<rect width="454" height="454" fill="white"/>
<path d="M377.488 397H82.1885C76.3639 397 73 400.582 73 405C73 409.418 76.3639 413 82.1885 413H377.488C383.312 413 386 409.418 386 405C386 400.582 383.312 397 377.488 397Z" fill="black"/>
<path d="M386 403.762V198.952C386 192.668 382.642 189 378.5 189C374.358 189 371 192.668 371 198.952V403.762C371 410.046 374.358 413 378.5 413C382.642 413 386 410.046 386 403.762Z" fill="black"/>
<path d="M435.429 241.316L234.885 40.7722C229.847 35.7335 224.607 35.5063 221.515 38.5979C218.424 41.6896 218.651 46.9293 223.69 51.968L424.233 252.512C429.272 257.55 434.512 257.778 437.603 254.686C440.695 251.594 440.468 246.354 435.429 241.316Z" fill="black"/>
<path d="M218.086 40.7745L17.9531 240.907C13.0345 245.826 12.9023 250.971 15.9939 254.062C19.0856 257.154 24.2304 257.022 29.149 252.103L229.282 51.9704C234.2 47.0518 234.333 41.907 231.241 38.8153C228.149 35.7237 223.004 35.8559 218.086 40.7745Z" fill="black"/>
<path d="M89 402.65L89 191.35C89 184.866 85.4183 181 81 181C76.5817 181 73 184.866 73 191.35L73 402.65C73 409.134 76.5817 413 81 413C85.4183 413 89 409.134 89 402.65Z" fill="black"/>
<path d="M161 267.643C161 261.765 164.358 257 168.5 257H176V406H161V267.643Z" fill="black"/>
<path d="M280 257H288C292.418 257 296 261.765 296 267.643V406H280V257Z" fill="black"/>
<path d="M280 273V257H173V273H280Z" fill="black"/>
</svg>
