<svg width="454" height="454" viewBox="0 0 454 454" fill="none" xmlns="http://www.w3.org/2000/svg">
<rect width="454" height="454" fill="white"/>
<rect x="163.5" y="56.5" width="126" height="248" rx="63" stroke="black" stroke-width="15"/>
<path d="M311 243C311 254.162 308.814 265.215 304.568 275.528C300.321 285.841 294.097 295.211 286.251 303.104C278.404 310.997 269.089 317.258 258.837 321.53C248.585 325.801 237.597 328 226.5 328C215.403 328 204.415 325.801 194.163 321.53C183.911 317.258 174.596 310.997 166.749 303.104C158.903 295.211 152.679 285.841 148.432 275.528C144.186 265.215 142 254.162 142 243" stroke="black" stroke-width="15" stroke-linecap="round"/>
<path d="M226.028 327.972L226.04 400.04" stroke="black" stroke-width="15" stroke-linecap="round"/>
<path d="M277.063 400.023L175 400.04" stroke="black" stroke-width="15" stroke-linecap="round"/>
</svg>
