<svg width="454" height="454" viewBox="0 0 454 454" fill="none" xmlns="http://www.w3.org/2000/svg">
<rect width="454" height="454" fill="white"/>
<path d="M402.217 237.364C409.565 232.408 409.565 221.592 402.217 216.636L406.41 210.418L402.217 216.636L270.489 127.806C262.186 122.207 251 128.156 251 138.17L251 315.83C251 325.844 262.186 331.793 270.489 326.194L402.217 237.364L406.41 243.582L402.217 237.364Z" stroke="black" stroke-width="15"/>
<path d="M244.217 237.364C251.565 232.408 251.565 221.592 244.217 216.636L248.41 210.418L244.217 216.636L112.489 127.806C104.186 122.207 93 128.156 93 138.17L93 315.83C93 325.844 104.186 331.793 112.489 326.194L244.217 237.364L248.41 243.582L244.217 237.364Z" stroke="black" stroke-width="15"/>
</svg>
