<svg width="454" height="454" viewBox="0 0 454 454" fill="none" xmlns="http://www.w3.org/2000/svg">
<rect width="454" height="454" fill="white"/>
<path fill-rule="evenodd" clip-rule="evenodd" d="M275.057 75.4565C275.057 71.3144 271.699 67.9565 267.557 67.9565H75C61.1929 67.9565 50 79.1494 50 92.9566V380.542C50 394.349 61.1929 405.542 75 405.542H362.585C376.392 405.542 387.585 394.349 387.585 380.542V181.819C387.585 177.677 384.227 174.319 380.085 174.319C375.943 174.319 372.585 177.677 372.585 181.819V380.542C372.585 386.065 368.108 390.542 362.585 390.542H75C69.4772 390.542 65 386.065 65 380.542V92.9566C65 87.4337 69.4772 82.9565 75 82.9565H267.557C271.699 82.9565 275.057 79.5987 275.057 75.4565Z" fill="black"/>
<circle cx="349.131" cy="104.327" r="43.369" stroke="black" stroke-width="15"/>
</svg>
