<svg width="454" height="454" viewBox="0 0 454 454" fill="none" xmlns="http://www.w3.org/2000/svg">
<rect width="454" height="454" fill="white"/>
<path d="M87.9747 312.663C112.053 312.663 131.573 293.039 131.573 268.831C131.573 244.624 112.053 225 87.9747 225C63.896 225 44.3763 244.624 44.3763 268.831C44.3763 293.039 63.896 312.663 87.9747 312.663Z" stroke="black" stroke-width="15"/>
<path d="M160.949 400.079C160.949 365.055 128.277 336.663 87.9747 336.663C47.672 336.663 15 365.055 15 400.079" stroke="black" stroke-width="15" stroke-linecap="round"/>
<path d="M366.242 312.663C390.32 312.663 409.84 293.039 409.84 268.831C409.84 244.624 390.32 225 366.242 225C342.163 225 322.643 244.624 322.643 268.831C322.643 293.039 342.163 312.663 366.242 312.663Z" stroke="black" stroke-width="15"/>
<path d="M439.216 400.079C439.216 365.055 406.544 336.663 366.242 336.663C325.939 336.663 293.267 365.055 293.267 400.079" stroke="black" stroke-width="15" stroke-linecap="round"/>
<path d="M227.133 281.112C266.443 281.112 298.309 249.076 298.309 209.556C298.309 170.037 266.443 138 227.133 138C187.824 138 155.958 170.037 155.958 209.556C155.958 249.076 187.824 281.112 227.133 281.112Z" fill="white" stroke="black" stroke-width="15"/>
<path d="M346.267 409C346.267 351.823 292.929 305.472 227.133 305.472C161.338 305.472 108 351.823 108 409" fill="white"/>
<path d="M346.267 409C346.267 351.823 292.929 305.472 227.133 305.472C161.338 305.472 108 351.823 108 409" stroke="black" stroke-width="15" stroke-linecap="round"/>
</svg>
