<svg width="454" height="454" viewBox="0 0 454 454" fill="none" xmlns="http://www.w3.org/2000/svg">
<rect width="454" height="454" fill="white"/>
<path d="M51.783 237.364C44.4347 232.408 44.4347 221.592 51.783 216.636L47.5898 210.418L51.783 216.636L183.511 127.806C191.814 122.207 203 128.156 203 138.17L203 315.83C203 325.844 191.814 331.793 183.511 326.194L51.783 237.364L47.5898 243.582L51.783 237.364Z" stroke="black" stroke-width="15"/>
<path d="M209.783 237.364C202.435 232.408 202.435 221.592 209.783 216.636L205.59 210.418L209.783 216.636L341.511 127.806C349.814 122.207 361 128.156 361 138.17L361 315.83C361 325.844 349.814 331.793 341.511 326.194L209.783 237.364L205.59 243.582L209.783 237.364Z" stroke="black" stroke-width="15"/>
</svg>
