<svg width="454" height="454" viewBox="0 0 454 454" fill="none" xmlns="http://www.w3.org/2000/svg">
<rect width="454" height="454" fill="white"/>
<path d="M399.5 226.5C399.5 236.324 394.81 246.339 385.453 256.165C376.09 265.997 362.477 275.158 345.893 283.007C312.728 298.702 269.062 308.5 227.923 308.5C186.78 308.5 142.638 298.701 108.995 282.99C92.1713 275.134 78.3252 265.963 68.792 256.12C59.2591 246.276 54.5 236.275 54.5 226.5C54.5 216.725 59.2591 206.724 68.792 196.88C78.3252 187.037 92.1713 177.866 108.995 170.01C142.638 154.299 186.78 144.5 227.923 144.5C269.062 144.5 312.728 154.298 345.893 169.993C362.477 177.842 376.09 187.003 385.453 196.835C394.81 206.661 399.5 216.676 399.5 226.5Z" stroke="black" stroke-width="15"/>
<circle cx="227" cy="227" r="62.5" stroke="black" stroke-width="15"/>
</svg>
