<svg width="454" height="454" viewBox="0 0 454 454" fill="none" xmlns="http://www.w3.org/2000/svg">
<rect width="454" height="454" fill="white"/>
<path d="M225.534 237.536C226.152 237.277 226.848 237.277 227.466 237.536L414.08 315.694C416.125 316.551 416.125 319.449 414.08 320.306L227.466 398.464C226.848 398.723 226.152 398.723 225.534 398.464L38.9202 320.306C36.8745 319.449 36.8746 316.551 38.9202 315.694L225.534 237.536Z" fill="white" stroke="black" stroke-width="15" stroke-linejoin="round"/>
<path d="M225.534 147.536C226.152 147.277 226.848 147.277 227.466 147.536L414.08 225.694C416.125 226.551 416.125 229.449 414.08 230.306L227.466 308.464C226.848 308.723 226.152 308.723 225.534 308.464L38.9202 230.306C36.8745 229.449 36.8746 226.551 38.9202 225.694L225.534 147.536Z" fill="white" stroke="black" stroke-width="15" stroke-linejoin="round"/>
<path d="M225.534 57.5357C226.152 57.277 226.848 57.277 227.466 57.5357L414.08 135.694C416.125 136.551 416.125 139.449 414.08 140.306L227.466 218.464C226.848 218.723 226.152 218.723 225.534 218.464L38.9202 140.306C36.8745 139.449 36.8746 136.551 38.9202 135.694L225.534 57.5357Z" fill="white" stroke="black" stroke-width="15" stroke-linejoin="round"/>
</svg>
