<svg width="454" height="454" viewBox="0 0 454 454" fill="none" xmlns="http://www.w3.org/2000/svg">
<g clip-path="url(#clip0_14_150)">
<rect width="454" height="454" fill="white"/>
<path d="M215.792 59.7256C219.841 48.8963 235.159 48.8963 239.208 59.7257L273.73 152.048C277.595 162.384 287.263 169.409 298.288 169.891L396.76 174.193C408.31 174.698 413.044 189.266 403.996 196.464L326.859 257.825C318.224 264.695 314.531 276.061 317.479 286.695L343.816 381.677C346.906 392.818 334.513 401.821 324.872 395.44L242.677 341.041C233.476 334.951 221.524 334.951 212.323 341.041L130.128 395.44C120.487 401.821 108.094 392.818 111.184 381.677L137.521 286.695C140.469 276.061 136.776 264.695 128.141 257.825L51.0042 196.464C41.9563 189.266 46.6897 174.698 58.2404 174.193L156.712 169.891C167.737 169.409 177.405 162.384 181.27 152.048L215.792 59.7256Z" stroke="black" stroke-width="15"/>
</g>
<defs>
<clipPath id="clip0_14_150">
<rect width="454" height="454" fill="white"/>
</clipPath>
</defs>
</svg>
