<svg width="454" height="454" viewBox="0 0 454 454" fill="none" xmlns="http://www.w3.org/2000/svg">
<rect width="454" height="454" fill="white"/>
<path d="M417 224C417 179.709 396.982 137.232 361.35 105.913C325.718 74.5946 277.391 57 227 57C176.609 57 128.282 74.5946 92.6497 105.913C57.0178 137.232 37 179.709 37 224" stroke="black" stroke-width="15" stroke-linecap="round"/>
<path d="M226.824 191.824L226.5 366.282" stroke="black" stroke-width="15" stroke-linecap="round"/>
<path d="M226 367C226 376.018 222.26 384.666 215.602 391.042C208.945 397.418 199.915 401 190.5 401C181.085 401 172.055 397.418 165.398 391.042C158.74 384.666 155 376.018 155 367" stroke="black" stroke-width="15" stroke-linecap="round"/>
</svg>
